<svg width="70" height="24" viewBox="0 0 70 24" fill="none" xmlns="http://www.w3.org/2000/svg">
<path d="M11.9023 15.668V18H2.84375V15.668H11.9023ZM3.67578 0.9375V18H0.734375V0.9375H3.67578ZM10.7188 8.0625V10.3594H2.84375V8.0625H10.7188ZM11.8438 0.9375V3.28125H2.84375V0.9375H11.8438ZM17.8438 15.7617L20.9492 5.32031H23.8789L19.4727 18H17.6445L17.8438 15.7617ZM15.4648 5.32031L18.6289 15.8086L18.7812 18H16.9531L12.5234 5.32031H15.4648ZM31.0508 18.2344C30.1133 18.2344 29.2656 18.082 28.5078 17.7773C27.7578 17.4648 27.1172 17.0312 26.5859 16.4766C26.0625 15.9219 25.6602 15.2695 25.3789 14.5195C25.0977 13.7695 24.957 12.9609 24.957 12.0938V11.625C24.957 10.6328 25.1016 9.73438 25.3906 8.92969C25.6797 8.125 26.082 7.4375 26.5977 6.86719C27.1133 6.28906 27.7227 5.84766 28.4258 5.54297C29.1289 5.23828 29.8906 5.08594 30.7109 5.08594C31.6172 5.08594 32.4102 5.23828 33.0898 5.54297C33.7695 5.84766 34.332 6.27734 34.7773 6.83203C35.2305 7.37891 35.5664 8.03125 35.7852 8.78906C36.0117 9.54688 36.125 10.3828 36.125 11.2969V12.5039H26.3281V10.4766H33.3359V10.2539C33.3203 9.74609 33.2188 9.26953 33.0312 8.82422C32.8516 8.37891 32.5742 8.01953 32.1992 7.74609C31.8242 7.47266 31.3242 7.33594 30.6992 7.33594C30.2305 7.33594 29.8125 7.4375 29.4453 7.64062C29.0859 7.83594 28.7852 8.12109 28.543 8.49609C28.3008 8.87109 28.1133 9.32422 27.9805 9.85547C27.8555 10.3789 27.793 10.9688 27.793 11.625V12.0938C27.793 12.6484 27.8672 13.1641 28.0156 13.6406C28.1719 14.1094 28.3984 14.5195 28.6953 14.8711C28.9922 15.2227 29.3516 15.5 29.7734 15.7031C30.1953 15.8984 30.6758 15.9961 31.2148 15.9961C31.8945 15.9961 32.5 15.8594 33.0312 15.5859C33.5625 15.3125 34.0234 14.9258 34.4141 14.4258L35.9023 15.8672C35.6289 16.2656 35.2734 16.6484 34.8359 17.0156C34.3984 17.375 33.8633 17.668 33.2305 17.8945C32.6055 18.1211 31.8789 18.2344 31.0508 18.2344ZM41.1289 8.02734V18H38.3047V5.32031H40.9648L41.1289 8.02734ZM40.625 11.1914L39.7109 11.1797C39.7188 10.2812 39.8438 9.45703 40.0859 8.70703C40.3359 7.95703 40.6797 7.3125 41.1172 6.77344C41.5625 6.23438 42.0938 5.82031 42.7109 5.53125C43.3281 5.23438 44.0156 5.08594 44.7734 5.08594C45.3828 5.08594 45.9336 5.17188 46.4258 5.34375C46.9258 5.50781 47.3516 5.77734 47.7031 6.15234C48.0625 6.52734 48.3359 7.01562 48.5234 7.61719C48.7109 8.21094 48.8047 8.94141 48.8047 9.80859V18H45.9688V9.79688C45.9688 9.1875 45.8789 8.70703 45.6992 8.35547C45.5273 7.99609 45.2734 7.74219 44.9375 7.59375C44.6094 7.4375 44.1992 7.35938 43.707 7.35938C43.2227 7.35938 42.7891 7.46094 42.4062 7.66406C42.0234 7.86719 41.6992 8.14453 41.4336 8.49609C41.1758 8.84766 40.9766 9.25391 40.8359 9.71484C40.6953 10.1758 40.625 10.668 40.625 11.1914ZM57.5 5.32031V7.38281H50.3516V5.32031H57.5ZM52.4141 2.21484H55.2383V14.4961C55.2383 14.8867 55.293 15.1875 55.4023 15.3984C55.5195 15.6016 55.6797 15.7383 55.8828 15.8086C56.0859 15.8789 56.3242 15.9141 56.5977 15.9141C56.793 15.9141 56.9805 15.9023 57.1602 15.8789C57.3398 15.8555 57.4844 15.832 57.5938 15.8086L57.6055 17.9648C57.3711 18.0352 57.0977 18.0977 56.7852 18.1523C56.4805 18.207 56.1289 18.2344 55.7305 18.2344C55.082 18.2344 54.5078 18.1211 54.0078 17.8945C53.5078 17.6602 53.1172 17.2812 52.8359 16.7578C52.5547 16.2344 52.4141 15.5391 52.4141 14.6719V2.21484ZM63.3594 16.6172L66.8047 5.32031H69.8281L64.7422 19.9336C64.625 20.2461 64.4727 20.5859 64.2852 20.9531C64.0977 21.3203 63.8516 21.668 63.5469 21.9961C63.25 22.332 62.8789 22.6016 62.4336 22.8047C61.9883 23.0156 61.4492 23.1211 60.8164 23.1211C60.5664 23.1211 60.3242 23.0977 60.0898 23.0508C59.8633 23.0117 59.6484 22.9688 59.4453 22.9219L59.4336 20.7656C59.5117 20.7734 59.6055 20.7812 59.7148 20.7891C59.832 20.7969 59.9258 20.8008 59.9961 20.8008C60.4648 20.8008 60.8555 20.7422 61.168 20.625C61.4805 20.5156 61.7344 20.3359 61.9297 20.0859C62.1328 19.8359 62.3047 19.5 62.4453 19.0781L63.3594 16.6172ZM61.4141 5.32031L64.4258 14.8125L64.9297 17.7891L62.9727 18.293L58.3672 5.32031H61.4141Z" fill="#FFFFFF"/>
</svg>
