<svg width="29" height="30" viewBox="0 0 29 30" fill="none" xmlns="http://www.w3.org/2000/svg">
<path d="M24.1005 14.0118H24.7863C26.0686 14.0118 26.7091 14.0118 27.1864 14.2875C27.4991 14.468 27.7588 14.7277 27.9393 15.0404C28.215 15.5177 28.215 16.1582 28.215 17.4405C28.215 18.7229 28.215 19.3633 27.9393 19.8406C27.7588 20.1533 27.4991 20.413 27.1864 20.5936C26.7091 20.8692 26.0686 20.8692 24.7863 20.8692H24.1005M4.89969 14.0118H4.21394C2.9316 14.0118 2.29111 14.0118 1.81383 14.2875C1.50112 14.468 1.24144 14.7277 1.06089 15.0404C0.785217 15.5177 0.785217 16.1582 0.785217 17.4405C0.785217 18.7229 0.785217 19.3633 1.06089 19.8406C1.24144 20.1533 1.50112 20.413 1.81383 20.5936C2.29111 20.8692 2.9316 20.8692 4.21394 20.8692H4.89969M14.5001 5.09711C15.0457 5.09711 15.569 4.88036 15.9548 4.49456C16.3406 4.10875 16.5574 3.58548 16.5574 3.03987C16.5574 2.49426 16.3406 1.97099 15.9548 1.58519C15.569 1.19938 15.0457 0.982635 14.5001 0.982635C13.9545 0.982635 13.4312 1.19938 13.0454 1.58519C12.6596 1.97099 12.4429 2.49426 12.4429 3.03987C12.4429 3.58548 12.6596 4.10875 13.0454 4.49456C13.4312 4.88036 13.9545 5.09711 14.5001 5.09711ZM14.5001 5.09711V9.21158M10.3856 14.6975V16.069M18.6146 14.6975V16.069M13.1286 9.21158H15.8716C19.7502 9.21158 21.6908 9.21158 22.895 10.4171C24.1005 11.6213 24.1005 13.5619 24.1005 17.4405C24.1005 21.3191 24.1005 23.2597 22.895 24.4639C21.6908 25.6695 19.7502 25.6695 15.8716 25.6695H14.5001C14.5001 25.6695 13.8144 28.4124 9.01416 28.4124C9.01416 28.4124 10.3856 27.0286 10.3856 25.6461C8.25572 25.5817 6.98435 25.3444 6.10523 24.4639C4.89969 23.2597 4.89969 21.3191 4.89969 17.4405C4.89969 13.5619 4.89969 11.6213 6.10523 10.4171C7.3094 9.21158 9.25005 9.21158 13.1286 9.21158Z" stroke="white" stroke-width="1.5" stroke-linecap="round" stroke-linejoin="round"/>
<path d="M11.7571 20.8692C11.7571 20.8692 12.6719 21.555 14.5001 21.555C16.3283 21.555 17.2431 20.8692 17.2431 20.8692" stroke="white" stroke-width="1.5" stroke-linecap="round" stroke-linejoin="round"/>
</svg>
