<svg width="33" height="33" viewBox="0 0 33 33" fill="none" xmlns="http://www.w3.org/2000/svg">
<path d="M26.0583 15.7721H26.7441C28.0264 15.7721 28.6669 15.7721 29.1442 16.0478C29.4569 16.2284 29.7166 16.488 29.8971 16.8008C30.1728 17.278 30.1728 17.9185 30.1728 19.2009C30.1728 20.4832 30.1728 21.1237 29.8971 21.601C29.7166 21.9137 29.4569 22.1734 29.1442 22.3539C28.6669 22.6296 28.0264 22.6296 26.7441 22.6296H26.0583M6.85745 15.7721H6.17171C4.88936 15.7721 4.24888 15.7721 3.7716 16.0478C3.45889 16.2284 3.1992 16.488 3.01865 16.8008C2.74298 17.278 2.74298 17.9185 2.74298 19.2009C2.74298 20.4832 2.74298 21.1237 3.01865 21.601C3.1992 21.9137 3.45889 22.1734 3.7716 22.3539C4.24888 22.6296 4.88936 22.6296 6.17171 22.6296H6.85745M16.4579 6.85745C17.0035 6.85745 17.5268 6.64071 17.9126 6.2549C18.2984 5.86909 18.5151 5.34583 18.5151 4.80022C18.5151 4.2546 18.2984 3.73134 17.9126 3.34553C17.5268 2.95972 17.0035 2.74298 16.4579 2.74298C15.9123 2.74298 15.389 2.95972 15.0032 3.34553C14.6174 3.73134 14.4006 4.2546 14.4006 4.80022C14.4006 5.34583 14.6174 5.86909 15.0032 6.2549C15.389 6.64071 15.9123 6.85745 16.4579 6.85745ZM16.4579 6.85745V10.9719M12.3434 16.4579V17.8294M20.5724 16.4579V17.8294M15.0864 10.9719H17.8294C21.7079 10.9719 23.6486 10.9719 24.8528 12.1775C26.0583 13.3816 26.0583 15.3223 26.0583 19.2009C26.0583 23.0794 26.0583 25.0201 24.8528 26.2243C23.6486 27.4298 21.7079 27.4298 17.8294 27.4298H16.4579C16.4579 27.4298 15.7721 30.1728 10.9719 30.1728C10.9719 30.1728 12.3434 28.7889 12.3434 27.4065C10.2135 27.342 8.94212 27.1048 8.06299 26.2243C6.85745 25.0201 6.85745 23.0794 6.85745 19.2009C6.85745 15.3223 6.85745 13.3816 8.06299 12.1775C9.26716 10.9719 11.2078 10.9719 15.0864 10.9719Z" stroke="#0E377C" stroke-width="1.5" stroke-linecap="round" stroke-linejoin="round"/>
<path d="M13.7149 22.6296C13.7149 22.6296 14.6297 23.3153 16.4579 23.3153C18.2861 23.3153 19.2009 22.6296 19.2009 22.6296" stroke="#0E377C" stroke-width="1.5" stroke-linecap="round" stroke-linejoin="round"/>
</svg>
