<svg width="311" height="103" viewBox="0 0 311 103" fill="none" xmlns="http://www.w3.org/2000/svg">
<path d="M23.8984 15.9609V21.0234H5.94531V15.9609H23.8984ZM7.70312 1.875V36H1.25781V1.875H7.70312ZM28.6797 1.875V36H22.2344V1.875H28.6797ZM42.1094 1.875V36H35.6641V1.875H42.1094ZM54.4375 30.4219L54.3906 34.7109C54.3906 36.3828 53.9766 38.0781 53.1484 39.7969C52.3203 41.5156 51.25 42.9375 49.9375 44.0625L46.6562 42.2578C47.0781 41.5547 47.4688 40.8438 47.8281 40.125C48.2031 39.4062 48.5 38.625 48.7188 37.7812C48.9531 36.9531 49.0703 36.0234 49.0703 34.9922V30.4219H54.4375ZM77.9219 0V36H71.7109V0H77.9219ZM76.9375 22.4062H75.1094C75.1094 20.6406 75.3438 19.0156 75.8125 17.5312C76.2812 16.0469 76.9453 14.7578 77.8047 13.6641C78.6641 12.5547 79.6875 11.6953 80.875 11.0859C82.0781 10.4766 83.4062 10.1719 84.8594 10.1719C86.1094 10.1719 87.2422 10.3516 88.2578 10.7109C89.2891 11.0547 90.1719 11.6094 90.9062 12.375C91.6406 13.1406 92.2031 14.1406 92.5938 15.375C93 16.5938 93.2031 18.0781 93.2031 19.8281V36H86.9688V19.7812C86.9688 18.6094 86.7969 17.6875 86.4531 17.0156C86.1094 16.3281 85.6172 15.8359 84.9766 15.5391C84.3516 15.2422 83.5781 15.0938 82.6562 15.0938C81.6562 15.0938 80.7969 15.2891 80.0781 15.6797C79.3594 16.0547 78.7656 16.5781 78.2969 17.25C77.8438 17.9219 77.5 18.6953 77.2656 19.5703C77.0469 20.4453 76.9375 21.3906 76.9375 22.4062ZM97.5625 23.5781V23.0859C97.5625 21.2266 97.8281 19.5156 98.3594 17.9531C98.8906 16.375 99.6641 15.0078 100.68 13.8516C101.695 12.6953 102.938 11.7969 104.406 11.1562C105.875 10.5 107.547 10.1719 109.422 10.1719C111.328 10.1719 113.016 10.5 114.484 11.1562C115.969 11.7969 117.219 12.6953 118.234 13.8516C119.25 15.0078 120.023 16.375 120.555 17.9531C121.086 19.5156 121.352 21.2266 121.352 23.0859V23.5781C121.352 25.4219 121.086 27.1328 120.555 28.7109C120.023 30.2734 119.25 31.6406 118.234 32.8125C117.219 33.9688 115.977 34.8672 114.508 35.5078C113.039 36.1484 111.359 36.4688 109.469 36.4688C107.594 36.4688 105.914 36.1484 104.43 35.5078C102.945 34.8672 101.695 33.9688 100.68 32.8125C99.6641 31.6406 98.8906 30.2734 98.3594 28.7109C97.8281 27.1328 97.5625 25.4219 97.5625 23.5781ZM103.75 23.0859V23.5781C103.75 24.6875 103.859 25.7266 104.078 26.6953C104.297 27.6641 104.633 28.5156 105.086 29.25C105.539 29.9844 106.125 30.5625 106.844 30.9844C107.578 31.3906 108.453 31.5938 109.469 31.5938C110.469 31.5938 111.328 31.3906 112.047 30.9844C112.766 30.5625 113.352 29.9844 113.805 29.25C114.273 28.5156 114.617 27.6641 114.836 26.6953C115.055 25.7266 115.164 24.6875 115.164 23.5781V23.0859C115.164 21.9922 115.055 20.9688 114.836 20.0156C114.617 19.0469 114.273 18.1953 113.805 17.4609C113.352 16.7109 112.758 16.125 112.023 15.7031C111.305 15.2656 110.438 15.0469 109.422 15.0469C108.422 15.0469 107.562 15.2656 106.844 15.7031C106.125 16.125 105.539 16.7109 105.086 17.4609C104.633 18.1953 104.297 19.0469 104.078 20.0156C103.859 20.9688 103.75 21.9922 103.75 23.0859ZM132.906 29.9062L138.461 10.6406H142.398L141.227 17.2969L135.625 36H132.227L132.906 29.9062ZM129.836 10.6406L134.008 29.9531L134.383 36H130.469L123.812 10.6406H129.836ZM147.555 29.6719L151.633 10.6406H157.633L151.023 36H147.109L147.555 29.6719ZM143.008 10.6406L148.516 29.7188L149.242 36H145.844L140.195 17.2969L139.047 10.6406H143.008ZM183.648 31.5938C184.523 31.5938 185.305 31.4219 185.992 31.0781C186.68 30.7344 187.227 30.25 187.633 29.625C188.055 29 188.281 28.2734 188.312 27.4453H194.148C194.117 29.1641 193.633 30.7031 192.695 32.0625C191.758 33.4219 190.508 34.5 188.945 35.2969C187.398 36.0781 185.664 36.4688 183.742 36.4688C181.789 36.4688 180.086 36.1406 178.633 35.4844C177.18 34.8281 175.969 33.9141 175 32.7422C174.047 31.5703 173.328 30.2109 172.844 28.6641C172.375 27.1172 172.141 25.4609 172.141 23.6953V22.9453C172.141 21.1797 172.375 19.5234 172.844 17.9766C173.328 16.4297 174.047 15.0703 175 13.8984C175.969 12.7266 177.18 11.8125 178.633 11.1562C180.086 10.5 181.781 10.1719 183.719 10.1719C185.766 10.1719 187.562 10.5703 189.109 11.3672C190.672 12.1641 191.891 13.2891 192.766 14.7422C193.656 16.1953 194.117 17.9062 194.148 19.875H188.312C188.281 18.9688 188.078 18.1562 187.703 17.4375C187.328 16.7188 186.797 16.1406 186.109 15.7031C185.422 15.2656 184.586 15.0469 183.602 15.0469C182.555 15.0469 181.68 15.2656 180.977 15.7031C180.289 16.1406 179.75 16.7422 179.359 17.5078C178.984 18.2578 178.719 19.1016 178.562 20.0391C178.422 20.9609 178.352 21.9297 178.352 22.9453V23.6953C178.352 24.7266 178.422 25.7109 178.562 26.6484C178.719 27.5859 178.984 28.4297 179.359 29.1797C179.75 29.9141 180.289 30.5 180.977 30.9375C181.68 31.375 182.57 31.5938 183.648 31.5938ZM212.242 30.6094V18.9141C212.242 18.0547 212.094 17.3125 211.797 16.6875C211.5 16.0625 211.047 15.5781 210.438 15.2344C209.828 14.8906 209.055 14.7188 208.117 14.7188C207.289 14.7188 206.562 14.8594 205.938 15.1406C205.328 15.4219 204.859 15.8203 204.531 16.3359C204.203 16.8359 204.039 17.4141 204.039 18.0703H197.828C197.828 17.0234 198.078 16.0312 198.578 15.0938C199.078 14.1406 199.789 13.2969 200.711 12.5625C201.648 11.8125 202.766 11.2266 204.062 10.8047C205.375 10.3828 206.844 10.1719 208.469 10.1719C210.391 10.1719 212.102 10.5 213.602 11.1562C215.117 11.7969 216.305 12.7656 217.164 14.0625C218.039 15.3594 218.477 16.9922 218.477 18.9609V30.0234C218.477 31.2891 218.555 32.375 218.711 33.2812C218.883 34.1719 219.133 34.9453 219.461 35.6016V36H213.156C212.859 35.3594 212.633 34.5469 212.477 33.5625C212.32 32.5625 212.242 31.5781 212.242 30.6094ZM213.109 20.5547L213.156 24.2344H209.242C208.273 24.2344 207.422 24.3359 206.688 24.5391C205.953 24.7266 205.352 25.0078 204.883 25.3828C204.414 25.7422 204.062 26.1797 203.828 26.6953C203.594 27.1953 203.477 27.7656 203.477 28.4062C203.477 29.0312 203.617 29.5938 203.898 30.0938C204.195 30.5938 204.617 30.9922 205.164 31.2891C205.727 31.5703 206.383 31.7109 207.133 31.7109C208.227 31.7109 209.18 31.4922 209.992 31.0547C210.805 30.6016 211.438 30.0547 211.891 29.4141C212.344 28.7734 212.586 28.1641 212.617 27.5859L214.398 30.2578C214.18 30.8984 213.852 31.5781 213.414 32.2969C212.977 33.0156 212.414 33.6875 211.727 34.3125C211.039 34.9375 210.211 35.4531 209.242 35.8594C208.273 36.2656 207.148 36.4688 205.867 36.4688C204.227 36.4688 202.758 36.1406 201.461 35.4844C200.164 34.8281 199.141 33.9297 198.391 32.7891C197.641 31.6484 197.266 30.3516 197.266 28.8984C197.266 27.5547 197.516 26.3672 198.016 25.3359C198.516 24.3047 199.258 23.4375 200.242 22.7344C201.227 22.0156 202.445 21.4766 203.898 21.1172C205.367 20.7422 207.047 20.5547 208.938 20.5547H213.109ZM230.125 16.0547V36H223.938V10.6406H229.75L230.125 16.0547ZM229.141 22.4062H227.312C227.328 20.5625 227.578 18.8906 228.062 17.3906C228.547 15.8906 229.227 14.6016 230.102 13.5234C230.992 12.4453 232.047 11.6172 233.266 11.0391C234.484 10.4609 235.844 10.1719 237.344 10.1719C238.562 10.1719 239.664 10.3438 240.648 10.6875C241.633 11.0312 242.477 11.5781 243.18 12.3281C243.898 13.0781 244.445 14.0625 244.82 15.2812C245.211 16.4844 245.406 17.9688 245.406 19.7344V36H239.172V19.6875C239.172 18.5312 239 17.6172 238.656 16.9453C238.328 16.2734 237.844 15.7969 237.203 15.5156C236.578 15.2344 235.805 15.0938 234.883 15.0938C233.93 15.0938 233.094 15.2891 232.375 15.6797C231.672 16.0547 231.078 16.5781 230.594 17.25C230.125 17.9219 229.766 18.6953 229.516 19.5703C229.266 20.4453 229.141 21.3906 229.141 22.4062ZM270.156 1.875V36H263.711V1.875H270.156ZM6.85938 56V92H0.648438V56H6.85938ZM5.875 78.4062H4.04688C4.04688 76.6406 4.28125 75.0156 4.75 73.5312C5.21875 72.0469 5.88281 70.7578 6.74219 69.6641C7.60156 68.5547 8.625 67.6953 9.8125 67.0859C11.0156 66.4766 12.3438 66.1719 13.7969 66.1719C15.0469 66.1719 16.1797 66.3516 17.1953 66.7109C18.2266 67.0547 19.1094 67.6094 19.8438 68.375C20.5781 69.1406 21.1406 70.1406 21.5312 71.375C21.9375 72.5938 22.1406 74.0781 22.1406 75.8281V92H15.9062V75.7812C15.9062 74.6094 15.7344 73.6875 15.3906 73.0156C15.0469 72.3281 14.5547 71.8359 13.9141 71.5391C13.2891 71.2422 12.5156 71.0938 11.5938 71.0938C10.5938 71.0938 9.73438 71.2891 9.01562 71.6797C8.29688 72.0547 7.70312 72.5781 7.23438 73.25C6.78125 73.9219 6.4375 74.6953 6.20312 75.5703C5.98438 76.4453 5.875 77.3906 5.875 78.4062ZM38.9922 92.4688C37.0703 92.4688 35.3438 92.1562 33.8125 91.5312C32.2812 90.9062 30.9766 90.0391 29.8984 88.9297C28.8359 87.8047 28.0156 86.5 27.4375 85.0156C26.875 83.5156 26.5938 81.9062 26.5938 80.1875V79.25C26.5938 77.2969 26.875 75.5234 27.4375 73.9297C28 72.3203 28.7969 70.9375 29.8281 69.7812C30.8594 68.625 32.0938 67.7344 33.5312 67.1094C34.9688 66.4844 36.5547 66.1719 38.2891 66.1719C40.0859 66.1719 41.6719 66.4766 43.0469 67.0859C44.4219 67.6797 45.5703 68.5234 46.4922 69.6172C47.4141 70.7109 48.1094 72.0234 48.5781 73.5547C49.0469 75.0703 49.2812 76.75 49.2812 78.5938V81.1953H29.4062V76.9297H43.1875V76.4609C43.1562 75.4766 42.9688 74.5781 42.625 73.7656C42.2812 72.9375 41.75 72.2812 41.0312 71.7969C40.3125 71.2969 39.3828 71.0469 38.2422 71.0469C37.3203 71.0469 36.5156 71.25 35.8281 71.6562C35.1562 72.0469 34.5938 72.6094 34.1406 73.3438C33.7031 74.0625 33.375 74.9219 33.1562 75.9219C32.9375 76.9219 32.8281 78.0312 32.8281 79.25V80.1875C32.8281 81.25 32.9688 82.2344 33.25 83.1406C33.5469 84.0469 33.9766 84.8359 34.5391 85.5078C35.1172 86.1641 35.8047 86.6797 36.6016 87.0547C37.4141 87.4141 38.3359 87.5938 39.3672 87.5938C40.6641 87.5938 41.8359 87.3438 42.8828 86.8438C43.9453 86.3281 44.8672 85.5703 45.6484 84.5703L48.7656 87.8047C48.2344 88.5859 47.5156 89.3359 46.6094 90.0547C45.7188 90.7734 44.6406 91.3594 43.375 91.8125C42.1094 92.25 40.6484 92.4688 38.9922 92.4688ZM59.9922 56V92H53.7812V56H59.9922ZM72.0859 71.5156V101.75H65.875V66.6406H71.6172L72.0859 71.5156ZM88.375 79.0625V79.5547C88.375 81.3984 88.1562 83.1094 87.7188 84.6875C87.2969 86.25 86.6719 87.6172 85.8438 88.7891C85.0156 89.9453 83.9844 90.8516 82.75 91.5078C81.5312 92.1484 80.125 92.4688 78.5312 92.4688C76.9688 92.4688 75.6094 92.1719 74.4531 91.5781C73.2969 90.9688 72.3203 90.1094 71.5234 89C70.7266 87.8906 70.0859 86.6016 69.6016 85.1328C69.1328 83.6484 68.7812 82.0312 68.5469 80.2812V78.7109C68.7812 76.8516 69.1328 75.1641 69.6016 73.6484C70.0859 72.1172 70.7266 70.7969 71.5234 69.6875C72.3203 68.5625 73.2891 67.6953 74.4297 67.0859C75.5859 66.4766 76.9375 66.1719 78.4844 66.1719C80.0938 66.1719 81.5078 66.4766 82.7266 67.0859C83.9609 67.6953 85 68.5703 85.8438 69.7109C86.6875 70.8516 87.3203 72.2109 87.7422 73.7891C88.1641 75.3672 88.375 77.125 88.375 79.0625ZM82.1641 79.5547V79.0625C82.1641 77.9375 82.0625 76.8984 81.8594 75.9453C81.6562 74.9766 81.3438 74.1328 80.9219 73.4141C80.5 72.6797 79.9531 72.1094 79.2812 71.7031C78.6094 71.2969 77.7969 71.0938 76.8438 71.0938C75.8906 71.0938 75.0703 71.25 74.3828 71.5625C73.6953 71.875 73.1328 72.3203 72.6953 72.8984C72.2578 73.4766 71.9141 74.1641 71.6641 74.9609C71.4297 75.7422 71.2734 76.6094 71.1953 77.5625V81.4531C71.3359 82.6094 71.6094 83.6484 72.0156 84.5703C72.4219 85.4922 73.0156 86.2266 73.7969 86.7734C74.5938 87.3203 75.625 87.5938 76.8906 87.5938C77.8438 87.5938 78.6562 87.3828 79.3281 86.9609C80 86.5391 80.5469 85.9609 80.9688 85.2266C81.3906 84.4766 81.6953 83.6172 81.8828 82.6484C82.0703 81.6797 82.1641 80.6484 82.1641 79.5547ZM112.281 89.1875L119.078 66.6406H125.711L115.539 95.8438C115.305 96.4688 115 97.1484 114.625 97.8828C114.266 98.6172 113.781 99.3125 113.172 99.9688C112.562 100.641 111.797 101.188 110.875 101.609C109.969 102.031 108.867 102.242 107.57 102.242C107.008 102.242 106.508 102.203 106.07 102.125C105.633 102.047 105.172 101.945 104.688 101.82V97.1797C104.844 97.1953 105.023 97.2031 105.227 97.2031C105.445 97.2188 105.633 97.2266 105.789 97.2266C106.695 97.2266 107.445 97.1172 108.039 96.8984C108.633 96.6953 109.109 96.3594 109.469 95.8906C109.844 95.4375 110.156 94.8438 110.406 94.1094L112.281 89.1875ZM108.93 66.6406L114.672 85.3203L115.68 91.8594L111.414 92.6328L102.25 66.6406H108.93ZM127.234 79.5781V79.0859C127.234 77.2266 127.5 75.5156 128.031 73.9531C128.562 72.375 129.336 71.0078 130.352 69.8516C131.367 68.6953 132.609 67.7969 134.078 67.1562C135.547 66.5 137.219 66.1719 139.094 66.1719C141 66.1719 142.688 66.5 144.156 67.1562C145.641 67.7969 146.891 68.6953 147.906 69.8516C148.922 71.0078 149.695 72.375 150.227 73.9531C150.758 75.5156 151.023 77.2266 151.023 79.0859V79.5781C151.023 81.4219 150.758 83.1328 150.227 84.7109C149.695 86.2734 148.922 87.6406 147.906 88.8125C146.891 89.9688 145.648 90.8672 144.18 91.5078C142.711 92.1484 141.031 92.4688 139.141 92.4688C137.266 92.4688 135.586 92.1484 134.102 91.5078C132.617 90.8672 131.367 89.9688 130.352 88.8125C129.336 87.6406 128.562 86.2734 128.031 84.7109C127.5 83.1328 127.234 81.4219 127.234 79.5781ZM133.422 79.0859V79.5781C133.422 80.6875 133.531 81.7266 133.75 82.6953C133.969 83.6641 134.305 84.5156 134.758 85.25C135.211 85.9844 135.797 86.5625 136.516 86.9844C137.25 87.3906 138.125 87.5938 139.141 87.5938C140.141 87.5938 141 87.3906 141.719 86.9844C142.438 86.5625 143.023 85.9844 143.477 85.25C143.945 84.5156 144.289 83.6641 144.508 82.6953C144.727 81.7266 144.836 80.6875 144.836 79.5781V79.0859C144.836 77.9922 144.727 76.9688 144.508 76.0156C144.289 75.0469 143.945 74.1953 143.477 73.4609C143.023 72.7109 142.43 72.125 141.695 71.7031C140.977 71.2656 140.109 71.0469 139.094 71.0469C138.094 71.0469 137.234 71.2656 136.516 71.7031C135.797 72.125 135.211 72.7109 134.758 73.4609C134.305 74.1953 133.969 75.0469 133.75 76.0156C133.531 76.9688 133.422 77.9922 133.422 79.0859ZM170.617 85.9766V66.6406H176.852V92H170.992L170.617 85.9766ZM171.414 80.7266L173.336 80.6797C173.336 82.3828 173.148 83.9531 172.773 85.3906C172.398 86.8281 171.812 88.0781 171.016 89.1406C170.234 90.1875 169.242 91.0078 168.039 91.6016C166.836 92.1797 165.414 92.4688 163.773 92.4688C162.523 92.4688 161.383 92.2969 160.352 91.9531C159.32 91.5938 158.43 91.0391 157.68 90.2891C156.945 89.5234 156.375 88.5469 155.969 87.3594C155.562 86.1562 155.359 84.7109 155.359 83.0234V66.6406H161.547V83.0703C161.547 83.9141 161.641 84.6172 161.828 85.1797C162.031 85.7422 162.305 86.2031 162.648 86.5625C163.008 86.9062 163.422 87.1562 163.891 87.3125C164.375 87.4531 164.891 87.5234 165.438 87.5234C166.938 87.5234 168.117 87.2266 168.977 86.6328C169.852 86.0234 170.477 85.2109 170.852 84.1953C171.227 83.1641 171.414 82.0078 171.414 80.7266ZM206.289 66.6406V71.0938H191.758V66.6406H206.289ZM195.648 60.4062H201.859V84.6875C201.859 85.4375 201.961 86.0156 202.164 86.4219C202.367 86.8281 202.672 87.1016 203.078 87.2422C203.484 87.3828 203.969 87.4531 204.531 87.4531C204.938 87.4531 205.312 87.4297 205.656 87.3828C206 87.3359 206.289 87.2891 206.523 87.2422L206.547 91.8828C206.031 92.0547 205.445 92.1953 204.789 92.3047C204.148 92.4141 203.422 92.4688 202.609 92.4688C201.219 92.4688 200 92.2344 198.953 91.7656C197.906 91.2812 197.094 90.5078 196.516 89.4453C195.938 88.3672 195.648 86.9453 195.648 85.1797V60.4062ZM208.703 79.5781V79.0859C208.703 77.2266 208.969 75.5156 209.5 73.9531C210.031 72.375 210.805 71.0078 211.82 69.8516C212.836 68.6953 214.078 67.7969 215.547 67.1562C217.016 66.5 218.688 66.1719 220.562 66.1719C222.469 66.1719 224.156 66.5 225.625 67.1562C227.109 67.7969 228.359 68.6953 229.375 69.8516C230.391 71.0078 231.164 72.375 231.695 73.9531C232.227 75.5156 232.492 77.2266 232.492 79.0859V79.5781C232.492 81.4219 232.227 83.1328 231.695 84.7109C231.164 86.2734 230.391 87.6406 229.375 88.8125C228.359 89.9688 227.117 90.8672 225.648 91.5078C224.18 92.1484 222.5 92.4688 220.609 92.4688C218.734 92.4688 217.055 92.1484 215.57 91.5078C214.086 90.8672 212.836 89.9688 211.82 88.8125C210.805 87.6406 210.031 86.2734 209.5 84.7109C208.969 83.1328 208.703 81.4219 208.703 79.5781ZM214.891 79.0859V79.5781C214.891 80.6875 215 81.7266 215.219 82.6953C215.438 83.6641 215.773 84.5156 216.227 85.25C216.68 85.9844 217.266 86.5625 217.984 86.9844C218.719 87.3906 219.594 87.5938 220.609 87.5938C221.609 87.5938 222.469 87.3906 223.188 86.9844C223.906 86.5625 224.492 85.9844 224.945 85.25C225.414 84.5156 225.758 83.6641 225.977 82.6953C226.195 81.7266 226.305 80.6875 226.305 79.5781V79.0859C226.305 77.9922 226.195 76.9688 225.977 76.0156C225.758 75.0469 225.414 74.1953 224.945 73.4609C224.492 72.7109 223.898 72.125 223.164 71.7031C222.445 71.2656 221.578 71.0469 220.562 71.0469C219.562 71.0469 218.703 71.2656 217.984 71.7031C217.266 72.125 216.68 72.7109 216.227 73.4609C215.773 74.1953 215.438 75.0469 215.219 76.0156C215 76.9688 214.891 77.9922 214.891 79.0859ZM252.203 86.6094V56H258.438V92H252.812L252.203 86.6094ZM235.914 79.625V79.1328C235.914 77.1953 236.133 75.4375 236.57 73.8594C237.023 72.2656 237.68 70.8984 238.539 69.7578C239.398 68.6172 240.438 67.7344 241.656 67.1094C242.891 66.4844 244.289 66.1719 245.852 66.1719C247.367 66.1719 248.688 66.4766 249.812 67.0859C250.953 67.6953 251.922 68.5625 252.719 69.6875C253.531 70.8125 254.18 72.1484 254.664 73.6953C255.148 75.2266 255.5 76.9141 255.719 78.7578V80.0938C255.5 81.8906 255.148 83.5391 254.664 85.0391C254.18 86.5391 253.531 87.8516 252.719 88.9766C251.922 90.0859 250.953 90.9453 249.812 91.5547C248.672 92.1641 247.336 92.4688 245.805 92.4688C244.258 92.4688 242.867 92.1484 241.633 91.5078C240.414 90.8672 239.375 89.9688 238.516 88.8125C237.672 87.6562 237.023 86.2969 236.57 84.7344C236.133 83.1719 235.914 81.4688 235.914 79.625ZM242.125 79.1328V79.625C242.125 80.7188 242.219 81.7422 242.406 82.6953C242.594 83.6484 242.898 84.4922 243.32 85.2266C243.742 85.9453 244.281 86.5078 244.938 86.9141C245.609 87.3203 246.422 87.5234 247.375 87.5234C248.594 87.5234 249.594 87.2578 250.375 86.7266C251.172 86.1797 251.789 85.4375 252.227 84.5C252.664 83.5469 252.945 82.4766 253.07 81.2891V77.6094C253.008 76.6719 252.844 75.8047 252.578 75.0078C252.328 74.2109 251.969 73.5234 251.5 72.9453C251.047 72.3672 250.484 71.9141 249.812 71.5859C249.141 71.2578 248.344 71.0938 247.422 71.0938C246.469 71.0938 245.656 71.3047 244.984 71.7266C244.312 72.1328 243.766 72.7031 243.344 73.4375C242.922 74.1719 242.609 75.0234 242.406 75.9922C242.219 76.9609 242.125 78.0078 242.125 79.1328ZM278.008 86.6094V74.9141C278.008 74.0547 277.859 73.3125 277.562 72.6875C277.266 72.0625 276.812 71.5781 276.203 71.2344C275.594 70.8906 274.82 70.7188 273.883 70.7188C273.055 70.7188 272.328 70.8594 271.703 71.1406C271.094 71.4219 270.625 71.8203 270.297 72.3359C269.969 72.8359 269.805 73.4141 269.805 74.0703H263.594C263.594 73.0234 263.844 72.0312 264.344 71.0938C264.844 70.1406 265.555 69.2969 266.477 68.5625C267.414 67.8125 268.531 67.2266 269.828 66.8047C271.141 66.3828 272.609 66.1719 274.234 66.1719C276.156 66.1719 277.867 66.5 279.367 67.1562C280.883 67.7969 282.07 68.7656 282.93 70.0625C283.805 71.3594 284.242 72.9922 284.242 74.9609V86.0234C284.242 87.2891 284.32 88.375 284.477 89.2812C284.648 90.1719 284.898 90.9453 285.227 91.6016V92H278.922C278.625 91.3594 278.398 90.5469 278.242 89.5625C278.086 88.5625 278.008 87.5781 278.008 86.6094ZM278.875 76.5547L278.922 80.2344H275.008C274.039 80.2344 273.188 80.3359 272.453 80.5391C271.719 80.7266 271.117 81.0078 270.648 81.3828C270.18 81.7422 269.828 82.1797 269.594 82.6953C269.359 83.1953 269.242 83.7656 269.242 84.4062C269.242 85.0312 269.383 85.5938 269.664 86.0938C269.961 86.5938 270.383 86.9922 270.93 87.2891C271.492 87.5703 272.148 87.7109 272.898 87.7109C273.992 87.7109 274.945 87.4922 275.758 87.0547C276.57 86.6016 277.203 86.0547 277.656 85.4141C278.109 84.7734 278.352 84.1641 278.383 83.5859L280.164 86.2578C279.945 86.8984 279.617 87.5781 279.18 88.2969C278.742 89.0156 278.18 89.6875 277.492 90.3125C276.805 90.9375 275.977 91.4531 275.008 91.8594C274.039 92.2656 272.914 92.4688 271.633 92.4688C269.992 92.4688 268.523 92.1406 267.227 91.4844C265.93 90.8281 264.906 89.9297 264.156 88.7891C263.406 87.6484 263.031 86.3516 263.031 84.8984C263.031 83.5547 263.281 82.3672 263.781 81.3359C264.281 80.3047 265.023 79.4375 266.008 78.7344C266.992 78.0156 268.211 77.4766 269.664 77.1172C271.133 76.7422 272.812 76.5547 274.703 76.5547H278.875ZM296.875 89.1875L303.672 66.6406H310.305L300.133 95.8438C299.898 96.4688 299.594 97.1484 299.219 97.8828C298.859 98.6172 298.375 99.3125 297.766 99.9688C297.156 100.641 296.391 101.188 295.469 101.609C294.562 102.031 293.461 102.242 292.164 102.242C291.602 102.242 291.102 102.203 290.664 102.125C290.227 102.047 289.766 101.945 289.281 101.82V97.1797C289.438 97.1953 289.617 97.2031 289.82 97.2031C290.039 97.2188 290.227 97.2266 290.383 97.2266C291.289 97.2266 292.039 97.1172 292.633 96.8984C293.227 96.6953 293.703 96.3594 294.062 95.8906C294.438 95.4375 294.75 94.8438 295 94.1094L296.875 89.1875ZM293.523 66.6406L299.266 85.3203L300.273 91.8594L296.008 92.6328L286.844 66.6406H293.523Z" fill="url(#paint0_linear_157_124)"/>
<defs>
<linearGradient id="paint0_linear_157_124" x1="154.5" y1="-8" x2="154.5" y2="104" gradientUnits="userSpaceOnUse">
<stop stop-color="#993535"/>
<stop offset="1" stop-color="#5B49E0"/>
</linearGradient>
</defs>
</svg>
