<svg width="21" height="25" viewBox="0 0 21 25" fill="none" xmlns="http://www.w3.org/2000/svg">
<path d="M14.375 22.6783C14.4267 23.0658 14.2975 23.4792 14.0004 23.7504C13.8809 23.8702 13.739 23.9652 13.5827 24.03C13.4265 24.0948 13.2589 24.1282 13.0898 24.1282C12.9206 24.1282 12.7531 24.0948 12.5968 24.03C12.4406 23.9652 12.2987 23.8702 12.1792 23.7504L6.99957 18.5708C6.85878 18.4331 6.75171 18.2646 6.68674 18.0787C6.62176 17.8927 6.60063 17.6942 6.62499 17.4988V10.8854L0.437903 2.9675C0.228147 2.69823 0.133501 2.35688 0.174646 2.01803C0.215791 1.67919 0.389381 1.37041 0.657486 1.15917C0.902903 0.978333 1.17415 0.875 1.45832 0.875H19.5417C19.8258 0.875 20.0971 0.978333 20.3425 1.15917C20.6106 1.37041 20.7842 1.67919 20.8253 2.01803C20.8665 2.35688 20.7718 2.69823 20.5621 2.9675L14.375 10.8854V22.6783ZM4.09332 3.45833L9.20832 9.99417V17.1242L11.7917 19.7075V9.98125L16.9067 3.45833H4.09332Z" fill="#A00651"/>
</svg>
