<svg width="460" height="460" viewBox="0 0 460 300" xmlns="http://www.w3.org/2000/svg">
  <!-- <g filter="url(#filter0_d)">
    <path d="M397.733 118.761C401.379 120.866 404.407 123.893 406.513 127.538C408.619 131.184 409.73 135.319 409.733 139.529L409.86 318.944C409.863 323.163 408.754 327.308 406.645 330.962C404.535 334.615 401.5 337.648 397.845 339.755L242.405 429.348C238.758 431.451 234.622 432.557 230.412 432.555C226.202 432.554 222.066 431.445 218.42 429.34L62.7913 339.487C59.1453 337.382 56.1173 334.355 54.011 330.71C51.9047 327.065 50.7943 322.93 50.7912 318.72L50.6641 139.304C50.661 135.085 51.7701 130.94 53.8795 127.287C55.9888 123.633 59.024 120.6 62.6791 118.493L218.119 28.9001C221.766 26.7977 225.902 25.6918 230.112 25.6934C234.322 25.6949 238.458 26.8038 242.104 28.9088L397.733 118.761Z" fill="#6564db"/>
  </g> -->
  <path d="M160.267 281.291C160.267 246.027 142 221.81 142 204.818C142 187.826 151.768 152.139 229.938 152.139C308.108 152.139 319.579 200.148 319.579 218.839C319.584 306.358 160.267 343.743 160.267 281.291Z" fill="#6564db" fill-opacity="0.1"/>
  <path d="M274.762 157.033H279.862V167.233H274.762V157.033Z" fill="white"/>
  <path d="M286.23 172.328H296.43V177.428H286.23V172.328Z" fill="white"/>
  <!-- <path d="M174.71 311.253C173.197 311.253 171.719 310.805 170.461 309.964C169.204 309.124 168.223 307.93 167.645 306.532C167.066 305.135 166.914 303.598 167.209 302.114C167.504 300.631 168.233 299.268 169.302 298.199C170.372 297.129 171.734 296.401 173.218 296.106C174.701 295.811 176.239 295.962 177.636 296.541C179.033 297.12 180.227 298.1 181.068 299.358C181.908 300.615 182.357 302.094 182.357 303.606C182.354 305.633 181.547 307.577 180.114 309.01C178.68 310.444 176.737 311.25 174.71 311.253V311.253ZM174.71 301.053C174.206 301.054 173.713 301.204 173.295 301.484C172.876 301.765 172.55 302.163 172.358 302.628C172.165 303.094 172.115 303.606 172.214 304.1C172.312 304.594 172.555 305.048 172.911 305.404C173.267 305.761 173.721 306.003 174.215 306.102C174.709 306.2 175.222 306.15 175.687 305.958C176.153 305.765 176.551 305.439 176.831 305.021C177.112 304.602 177.262 304.11 177.263 303.606C177.26 302.93 176.99 302.283 176.511 301.806C176.033 301.329 175.385 301.06 174.71 301.059V301.053Z" fill="white"/> -->
  <path d="M186.925 227.182C185.789 227.853 184.832 228.788 184.134 229.908C183.437 231.027 183.019 232.298 182.917 233.614C182.815 234.929 183.032 236.249 183.549 237.463C184.066 238.677 184.867 239.748 185.886 240.586C186.905 241.424 188.11 242.004 189.401 242.277C190.692 242.55 192.029 242.508 193.3 242.155C194.571 241.801 195.738 241.146 196.702 240.246C197.666 239.345 198.399 238.226 198.838 236.982H220.1C222.277 236.982 224.365 237.847 225.905 239.386C227.444 240.926 228.309 243.014 228.309 245.191C228.309 247.368 227.444 249.456 225.905 250.996C224.365 252.535 222.277 253.4 220.1 253.4H187.269C185.462 253.385 183.671 253.727 181.997 254.408C180.324 255.088 178.802 256.094 177.519 257.366C176.236 258.638 175.218 260.151 174.523 261.819C173.828 263.486 173.47 265.275 173.47 267.082C173.47 268.888 173.828 270.677 174.523 272.345C175.218 274.012 176.236 275.526 177.519 276.798C178.802 278.07 180.324 279.075 181.997 279.755C183.671 280.436 185.462 280.779 187.269 280.763H214.632C215.358 280.763 216.054 280.475 216.567 279.962C217.08 279.448 217.369 278.752 217.369 278.027C217.369 277.301 217.08 276.605 216.567 276.092C216.054 275.578 215.358 275.29 214.632 275.29H187.269C185.092 275.29 183.004 274.425 181.464 272.886C179.925 271.346 179.06 269.258 179.06 267.081C179.06 264.904 179.925 262.816 181.464 261.276C183.004 259.737 185.092 258.872 187.269 258.872H220.1C223.708 258.841 227.158 257.386 229.699 254.824C232.24 252.261 233.665 248.799 233.665 245.191C233.665 241.582 232.24 238.12 229.699 235.557C227.158 232.995 223.708 231.54 220.1 231.509H198.838C198.192 229.695 196.931 228.164 195.274 227.181L216.174 192.891C219.186 188.356 220.911 183.09 221.167 177.652C221.422 172.215 220.199 166.81 217.626 162.012C215.053 157.215 211.227 153.206 206.556 150.41C201.885 147.615 196.544 146.139 191.1 146.139C185.656 146.139 180.315 147.615 175.644 150.41C170.973 153.206 167.147 157.215 164.574 162.012C162.001 166.81 160.778 172.215 161.033 177.652C161.289 183.09 163.014 188.356 166.026 192.891L186.925 227.182ZM191.1 236.982C190.559 236.982 190.03 236.822 189.58 236.521C189.13 236.22 188.779 235.793 188.572 235.293C188.365 234.793 188.311 234.243 188.417 233.712C188.522 233.182 188.783 232.694 189.165 232.311C189.548 231.929 190.036 231.668 190.566 231.563C191.097 231.457 191.647 231.511 192.147 231.718C192.647 231.925 193.074 232.276 193.375 232.726C193.676 233.176 193.836 233.705 193.836 234.246C193.835 234.972 193.547 235.667 193.034 236.181C192.521 236.694 191.826 236.982 191.1 236.983V236.982ZM191.1 151.609C195.558 151.61 199.931 152.82 203.755 155.111C207.579 157.402 210.709 160.688 212.812 164.618C214.915 168.549 215.912 172.976 215.697 177.428C215.482 181.881 214.062 186.191 211.59 189.9C211.569 189.931 211.548 189.963 211.529 190L191.1 223.516C191.1 223.516 170.63 189.932 170.609 189.9C168.137 186.191 166.718 181.881 166.503 177.428C166.288 172.976 167.285 168.549 169.388 164.619C171.491 160.689 174.621 157.403 178.445 155.112C182.269 152.821 186.643 151.611 191.1 151.61V151.609Z" fill="white"/>
  <path d="M191.1 189.919C193.806 189.919 196.451 189.116 198.701 187.613C200.951 186.109 202.705 183.972 203.741 181.472C204.776 178.972 205.047 176.221 204.519 173.567C203.991 170.913 202.688 168.475 200.774 166.562C198.861 164.648 196.423 163.345 193.769 162.817C191.114 162.29 188.363 162.561 185.863 163.596C183.363 164.632 181.227 166.386 179.723 168.636C178.22 170.886 177.418 173.532 177.418 176.238C177.423 179.865 178.866 183.342 181.431 185.906C183.996 188.471 187.473 189.914 191.1 189.919ZM191.1 168.028C192.724 168.028 194.311 168.509 195.661 169.411C197.011 170.313 198.063 171.595 198.684 173.095C199.305 174.595 199.468 176.246 199.151 177.838C198.834 179.431 198.053 180.893 196.905 182.041C195.757 183.189 194.294 183.971 192.701 184.288C191.109 184.605 189.459 184.442 187.959 183.821C186.459 183.2 185.176 182.147 184.274 180.797C183.372 179.447 182.891 177.86 182.891 176.237C182.894 174.06 183.759 171.974 185.298 170.435C186.837 168.897 188.924 168.031 191.1 168.029V168.028Z" fill="white"/>
  <path d="M271.001 191.561C265.555 191.56 260.21 193.038 255.538 195.836C250.865 198.633 247.039 202.647 244.467 207.447C241.895 212.248 240.674 217.657 240.934 223.097C241.194 228.537 242.925 233.805 245.943 238.339L266.764 271C265.138 271.984 263.901 273.5 263.264 275.292H239.264C238.538 275.292 237.842 275.58 237.329 276.093C236.816 276.606 236.527 277.302 236.527 278.028C236.527 278.754 236.816 279.45 237.329 279.963C237.842 280.476 238.538 280.765 239.264 280.765H263.264C263.702 282.006 264.433 283.123 265.394 284.023C266.355 284.922 267.518 285.577 268.786 285.933C270.053 286.289 271.387 286.334 272.676 286.066C273.965 285.797 275.17 285.223 276.19 284.391C277.21 283.559 278.015 282.494 278.538 281.286C279.06 280.078 279.284 278.762 279.19 277.448C279.097 276.135 278.689 274.864 278.002 273.742C277.314 272.619 276.366 271.679 275.239 271L296.06 238.339C299.078 233.805 300.809 228.537 301.069 223.097C301.328 217.657 300.107 212.248 297.536 207.447C294.964 202.646 291.137 198.633 286.465 195.835C281.792 193.038 276.447 191.56 271.001 191.561V191.561ZM271.001 280.761C270.46 280.761 269.931 280.6 269.481 280.299C269.031 279.999 268.68 279.572 268.473 279.072C268.266 278.572 268.212 278.022 268.317 277.491C268.423 276.96 268.684 276.473 269.066 276.09C269.449 275.707 269.936 275.447 270.467 275.341C270.998 275.236 271.548 275.29 272.048 275.497C272.548 275.704 272.975 276.055 273.276 276.505C273.576 276.954 273.737 277.483 273.737 278.025C273.736 278.75 273.448 279.445 272.935 279.958C272.422 280.471 271.726 280.76 271.001 280.761V280.761ZM291.492 235.32L271.001 267.461L250.51 235.32C248.037 231.611 246.618 227.3 246.403 222.848C246.187 218.396 247.185 213.969 249.288 210.039C251.391 206.109 254.522 202.823 258.346 200.532C262.17 198.242 266.543 197.032 271.001 197.032C275.458 197.032 279.832 198.242 283.656 200.532C287.48 202.823 290.611 206.109 292.714 210.039C294.817 213.969 295.814 218.396 295.599 222.848C295.384 227.3 293.964 231.611 291.492 235.32V235.32Z" fill="white"/>
  <path d="M271 207.979C268.294 207.979 265.649 208.781 263.399 210.284C261.149 211.788 259.395 213.925 258.36 216.425C257.324 218.925 257.053 221.676 257.581 224.33C258.109 226.984 259.412 229.422 261.326 231.335C263.239 233.249 265.677 234.552 268.331 235.08C270.985 235.608 273.736 235.337 276.236 234.301C278.736 233.265 280.873 231.512 282.377 229.262C283.88 227.012 284.682 224.367 284.682 221.661C284.678 218.033 283.235 214.556 280.67 211.991C278.105 209.426 274.628 207.983 271 207.979V207.979ZM271 229.87C269.377 229.87 267.79 229.388 266.44 228.486C265.09 227.584 264.038 226.302 263.416 224.802C262.795 223.302 262.632 221.651 262.949 220.059C263.266 218.467 264.048 217.004 265.196 215.856C266.344 214.708 267.806 213.926 269.399 213.609C270.991 213.293 272.642 213.455 274.142 214.076C275.642 214.698 276.924 215.75 277.826 217.1C278.728 218.45 279.209 220.037 279.209 221.661C279.207 223.837 278.341 225.924 276.802 227.463C275.263 229.001 273.177 229.867 271 229.87V229.87Z" fill="white"/>
  <path d="M227 281.137C228.657 281.137 230 279.794 230 278.137C230 276.48 228.657 275.137 227 275.137C225.343 275.137 224 276.48 224 278.137C224 279.794 225.343 281.137 227 281.137Z" fill="white"/>
  <defs>
    <filter id="filter0_d" x="0.664062" y="0.693359" width="459.196" height="506.862" filterUnits="userSpaceOnUse" color-interpolation-filters="sRGB">
      <feFlood flood-opacity="0" result="BackgroundImageFix"/>
      <feColorMatrix in="SourceAlpha" type="matrix" values="0 0 0 0 0 0 0 0 0 0 0 0 0 0 0 0 0 0 127 0"/>
      <feOffset dy="25"/>
      <feGaussianBlur stdDeviation="25"/>
      <feColorMatrix type="matrix" values="0 0 0 0 0.168627 0 0 0 0 0.317647 0 0 0 0 0.501961 0 0 0 0.071 0"/>
      <feBlend mode="normal" in2="BackgroundImageFix" result="effect1_dropShadow"/>
      <feBlend mode="normal" in="SourceGraphic" in2="effect1_dropShadow" result="shape"/>
    </filter>
  </defs>
</svg>
