<svg width="33" height="32" viewBox="0 0 33 32" fill="none" xmlns="http://www.w3.org/2000/svg">
<path fill-rule="evenodd" clip-rule="evenodd" d="M11.0348 3.91281C11.0348 2.99689 11.4097 2.11848 12.077 1.47082C12.7443 0.823169 13.6493 0.45932 14.593 0.45932H18.1511C19.0948 0.45932 19.9998 0.823169 20.6671 1.47082C21.3344 2.11848 21.7093 2.99689 21.7093 3.91281V10.8198H28.8255C29.7692 10.8198 30.6742 11.1836 31.3415 11.8313C32.0088 12.4789 32.3837 13.3574 32.3837 14.2733V17.7268C32.3837 18.6427 32.0088 19.5211 31.3415 20.1687C30.6742 20.8164 29.7692 21.1803 28.8255 21.1803H21.7093V28.0872C21.7093 29.0031 21.3344 29.8816 20.6671 30.5292C19.9998 31.1769 19.0948 31.5407 18.1511 31.5407H14.593C13.6493 31.5407 12.7443 31.1769 12.077 30.5292C11.4097 29.8816 11.0348 29.0031 11.0348 28.0872V21.1803H3.91855C2.97487 21.1803 2.06985 20.8164 1.40257 20.1687C0.735287 19.5211 0.360413 18.6427 0.360413 17.7268V14.2733C0.360413 13.3574 0.735287 12.4789 1.40257 11.8313C2.06985 11.1836 2.97487 10.8198 3.91855 10.8198H11.0348V3.91281ZM18.1511 3.91281H14.593V12.5465C14.593 13.0045 14.4055 13.4437 14.0719 13.7675C13.7383 14.0913 13.2857 14.2733 12.8139 14.2733H3.91855V17.7268H12.8139C13.2857 17.7268 13.7383 17.9087 14.0719 18.2325C14.4055 18.5563 14.593 18.9955 14.593 19.4535V28.0872H18.1511V19.4535C18.1511 18.9955 18.3385 18.5563 18.6722 18.2325C19.0058 17.9087 19.4583 17.7268 19.9302 17.7268H28.8255V14.2733H19.9302C19.4583 14.2733 19.0058 14.0913 18.6722 13.7675C18.3385 13.4437 18.1511 13.0045 18.1511 12.5465V3.91281Z" fill="#FFF5F5"/>
</svg>
