<svg width="33" height="32" viewBox="0 0 33 32" fill="none" xmlns="http://www.w3.org/2000/svg">
<path fill-rule="evenodd" clip-rule="evenodd" d="M11.0348 3.91281C11.0348 2.99689 11.4096 2.11848 12.0769 1.47082C12.7442 0.823169 13.6492 0.45932 14.5929 0.45932H18.1511C19.0947 0.45932 19.9998 0.823169 20.667 1.47082C21.3343 2.11848 21.7092 2.99689 21.7092 3.91281V10.8198H28.8255C29.7691 10.8198 30.6742 11.1836 31.3415 11.8313C32.0087 12.4789 32.3836 13.3574 32.3836 14.2733V17.7268C32.3836 18.6427 32.0087 19.5211 31.3415 20.1687C30.6742 20.8164 29.7691 21.1803 28.8255 21.1803H21.7092V28.0872C21.7092 29.0031 21.3343 29.8816 20.667 30.5292C19.9998 31.1769 19.0947 31.5407 18.1511 31.5407H14.5929C13.6492 31.5407 12.7442 31.1769 12.0769 30.5292C11.4096 29.8816 11.0348 29.0031 11.0348 28.0872V21.1803H3.91849C2.97481 21.1803 2.06979 20.8164 1.40251 20.1687C0.735226 19.5211 0.360352 18.6427 0.360352 17.7268V14.2733C0.360352 13.3574 0.735226 12.4789 1.40251 11.8313C2.06979 11.1836 2.97481 10.8198 3.91849 10.8198H11.0348V3.91281ZM18.1511 3.91281H14.5929V12.5465C14.5929 13.0045 14.4055 13.4437 14.0718 13.7675C13.7382 14.0913 13.2857 14.2733 12.8138 14.2733H3.91849V17.7268H12.8138C13.2857 17.7268 13.7382 17.9087 14.0718 18.2325C14.4055 18.5563 14.5929 18.9955 14.5929 19.4535V28.0872H18.1511V19.4535C18.1511 18.9955 18.3385 18.5563 18.6721 18.2325C19.0058 17.9087 19.4583 17.7268 19.9301 17.7268H28.8255V14.2733H19.9301C19.4583 14.2733 19.0058 14.0913 18.6721 13.7675C18.3385 13.4437 18.1511 13.0045 18.1511 12.5465V3.91281Z" fill="black"/>
</svg>
