<svg width="29" height="29" viewBox="0 0 29 29" fill="none" xmlns="http://www.w3.org/2000/svg">
<path d="M25.5 17.9375V6.9375C25.5 4.34425 25.5 3.049 24.6943 2.24325C23.8885 1.4375 22.5933 1.4375 20 1.4375H9.00004C6.40678 1.4375 5.11154 1.4375 4.30579 2.24325C3.50003 3.049 3.50004 4.34425 3.50004 6.9375V17.9375M2.80978 19.3331L3.52754 17.9375H25.434L26.1903 19.3331C28.1744 22.9934 28.6694 24.8235 27.9145 26.193C27.1597 27.5625 25.1618 27.5625 21.1633 27.5625H7.83678C3.83691 27.5625 1.83766 27.5625 1.08416 26.193C0.329285 24.8235 0.824285 22.9934 2.80978 19.3331Z" stroke="white" stroke-width="1.5" stroke-linecap="round" stroke-linejoin="round"/>
<path d="M19.3125 7.625L20.5775 8.71538C21.1096 9.17325 21.375 9.40287 21.375 9.6875C21.375 9.97213 21.1096 10.2017 20.5775 10.6596L19.3125 11.75M9.6875 7.625L8.4225 8.71538C7.89037 9.17325 7.625 9.40287 7.625 9.6875C7.625 9.97213 7.89037 10.2017 8.4225 10.6596L9.6875 11.75M15.875 6.25L13.125 13.125" stroke="white" stroke-width="1.5" stroke-linecap="round" stroke-linejoin="round"/>
</svg>
